# xmcd CD database file
#
# Track frame offsets:
#	182
#	13885
#	38362
#	61412
#	73475
#	97267
#	124930
#	141040
#	164302
#	189860
#	202222
#	225142
#	246845
#	264307
#
# Disc length: 3883 seconds
#
# Revision: 2
# Processed by: cddbd v1.5.2PL0 Copyright (c) Steve Scherf et al.
# Submitted via: CDex 2.17
#
DISCID=c50f290e
DTITLE=Isabel Pantoja - Mis Mejores Canciones
DYEAR=1900
DGENRE=Blues
TTITLE0=Marinero de luces
TTITLE1=Asm fue
TTITLE2=Si te recuerdo
TTITLE3=Nada
TTITLE4=Porque me gusta morir
TTITLE5=Hazme tuya una vez mas
TTITLE6=Cambiar por ti
TTITLE7=Se me enamora el Alma
TTITLE8=Buenos dmas tristeza
TTITLE9=Feriante
TTITLE10=Desde que vivo con otro
TTITLE11=Hoy quiero confesarme
TTITLE12=Era mi vida il
TTITLE13=Virgen del Rocmo
EXTD=
EXTT0=
EXTT1=
EXTT2=
EXTT3=
EXTT4=
EXTT5=
EXTT6=
EXTT7=
EXTT8=
EXTT9=
EXTT10=
EXTT11=
EXTT12=
EXTT13=
PLAYORDER=
